<?xml version="1.0" encoding="UTF-8" standalone="no"?>
<!-- Created with Inkscape (http://www.inkscape.org/) -->

<svg
   xmlns:dc="http://purl.org/dc/elements/1.1/"
   xmlns:cc="http://creativecommons.org/ns#"
   xmlns:rdf="http://www.w3.org/1999/02/22-rdf-syntax-ns#"
   xmlns:svg="http://www.w3.org/2000/svg"
   xmlns="http://www.w3.org/2000/svg"
   xmlns:sodipodi="http://sodipodi.sourceforge.net/DTD/sodipodi-0.dtd"
   xmlns:inkscape="http://www.inkscape.org/namespaces/inkscape"
   width="640.66455mm"
   height="413.07849mm"
   viewBox="0 0 640.66455 413.07849"
   version="1.1"
   id="svg8"
   inkscape:version="0.92.4 5da689c313, 2019-01-14"
   sodipodi:docname="Drawing.svg">
  <defs
     id="defs2">
    <marker
       inkscape:stockid="Arrow2Mend"
       orient="auto"
       refY="0.0"
       refX="0.0"
       id="marker1704"
       style="overflow:visible;"
       inkscape:isstock="true">
      <path
         id="path1702"
         style="fill-rule:evenodd;stroke-width:0.625;stroke-linejoin:round;stroke:#000000;stroke-opacity:1;fill:#000000;fill-opacity:1"
         d="M 8.7185878,4.0337352 L -2.2072895,0.016013256 L 8.7185884,-4.0017078 C 6.9730900,-1.6296469 6.9831476,1.6157441 8.7185878,4.0337352 z "
         transform="scale(0.6) rotate(180) translate(0,0)" />
    </marker>
    <marker
       inkscape:stockid="Arrow2Mstart"
       orient="auto"
       refY="0.0"
       refX="0.0"
       id="Arrow2Mstart"
       style="overflow:visible"
       inkscape:isstock="true">
      <path
         id="path1055"
         style="fill-rule:evenodd;stroke-width:0.625;stroke-linejoin:round;stroke:#000000;stroke-opacity:1;fill:#000000;fill-opacity:1"
         d="M 8.7185878,4.0337352 L -2.2072895,0.016013256 L 8.7185884,-4.0017078 C 6.9730900,-1.6296469 6.9831476,1.6157441 8.7185878,4.0337352 z "
         transform="scale(0.6) translate(0,0)" />
    </marker>
    <marker
       inkscape:stockid="Arrow1Send"
       orient="auto"
       refY="0.0"
       refX="0.0"
       id="Arrow1Send"
       style="overflow:visible;"
       inkscape:isstock="true">
      <path
         id="path1046"
         d="M 0.0,0.0 L 5.0,-5.0 L -12.5,0.0 L 5.0,5.0 L 0.0,0.0 z "
         style="fill-rule:evenodd;stroke:#000000;stroke-width:1pt;stroke-opacity:1;fill:#000000;fill-opacity:1"
         transform="scale(0.2) rotate(180) translate(6,0)" />
    </marker>
    <marker
       inkscape:stockid="Arrow2Lend"
       orient="auto"
       refY="0.0"
       refX="0.0"
       id="marker1696"
       style="overflow:visible;"
       inkscape:isstock="true">
      <path
         id="path1694"
         style="fill-rule:evenodd;stroke-width:0.625;stroke-linejoin:round;stroke:#000000;stroke-opacity:1;fill:#000000;fill-opacity:1"
         d="M 8.7185878,4.0337352 L -2.2072895,0.016013256 L 8.7185884,-4.0017078 C 6.9730900,-1.6296469 6.9831476,1.6157441 8.7185878,4.0337352 z "
         transform="scale(1.1) rotate(180) translate(1,0)" />
    </marker>
    <marker
       inkscape:stockid="Arrow2Lend"
       orient="auto"
       refY="0.0"
       refX="0.0"
       id="marker1692"
       style="overflow:visible;"
       inkscape:isstock="true">
      <path
         id="path1690"
         style="fill-rule:evenodd;stroke-width:0.625;stroke-linejoin:round;stroke:#000000;stroke-opacity:1;fill:#000000;fill-opacity:1"
         d="M 8.7185878,4.0337352 L -2.2072895,0.016013256 L 8.7185884,-4.0017078 C 6.9730900,-1.6296469 6.9831476,1.6157441 8.7185878,4.0337352 z "
         transform="scale(1.1) rotate(180) translate(1,0)" />
    </marker>
    <marker
       inkscape:stockid="Arrow1Lend"
       orient="auto"
       refY="0.0"
       refX="0.0"
       id="marker1688"
       style="overflow:visible;"
       inkscape:isstock="true">
      <path
         id="path1686"
         d="M 0.0,0.0 L 5.0,-5.0 L -12.5,0.0 L 5.0,5.0 L 0.0,0.0 z "
         style="fill-rule:evenodd;stroke:#000000;stroke-width:1pt;stroke-opacity:1;fill:#000000;fill-opacity:1"
         transform="scale(0.8) rotate(180) translate(12.5,0)" />
    </marker>
    <inkscape:perspective
       sodipodi:type="inkscape:persp3d"
       inkscape:vp_x="250.16415 : 250.96309 : 1"
       inkscape:vp_y="0 : 1000 : 0"
       inkscape:vp_z="352.08199 : 353.47748 : 1"
       inkscape:persp3d-origin="319.36544 : 124.72287 : 1"
       id="perspective1652" />
    <marker
       inkscape:stockid="Arrow2Mend"
       orient="auto"
       refY="0.0"
       refX="0.0"
       id="Arrow2Mend"
       style="overflow:visible;"
       inkscape:isstock="true">
      <path
         id="path1058"
         style="fill-rule:evenodd;stroke-width:0.625;stroke-linejoin:round;stroke:#000000;stroke-opacity:1;fill:#000000;fill-opacity:1"
         d="M 8.7185878,4.0337352 L -2.2072895,0.016013256 L 8.7185884,-4.0017078 C 6.9730900,-1.6296469 6.9831476,1.6157441 8.7185878,4.0337352 z "
         transform="scale(0.6) rotate(180) translate(0,0)" />
    </marker>
    <marker
       inkscape:stockid="Arrow2Lend"
       orient="auto"
       refY="0.0"
       refX="0.0"
       id="Arrow2Lend"
       style="overflow:visible;"
       inkscape:isstock="true">
      <path
         id="path1052"
         style="fill-rule:evenodd;stroke-width:0.625;stroke-linejoin:round;stroke:#000000;stroke-opacity:1;fill:#000000;fill-opacity:1"
         d="M 8.7185878,4.0337352 L -2.2072895,0.016013256 L 8.7185884,-4.0017078 C 6.9730900,-1.6296469 6.9831476,1.6157441 8.7185878,4.0337352 z "
         transform="scale(1.1) rotate(180) translate(1,0)" />
    </marker>
    <marker
       inkscape:stockid="Arrow1Lend"
       orient="auto"
       refY="0.0"
       refX="0.0"
       id="Arrow1Lend"
       style="overflow:visible;"
       inkscape:isstock="true">
      <path
         id="path1034"
         d="M 0.0,0.0 L 5.0,-5.0 L -12.5,0.0 L 5.0,5.0 L 0.0,0.0 z "
         style="fill-rule:evenodd;stroke:#000000;stroke-width:1pt;stroke-opacity:1;fill:#000000;fill-opacity:1"
         transform="scale(0.8) rotate(180) translate(12.5,0)" />
    </marker>
    <marker
       inkscape:stockid="Arrow2Mend"
       orient="auto"
       refY="0"
       refX="0"
       id="Arrow2Mend-7"
       style="overflow:visible"
       inkscape:isstock="true">
      <path
         inkscape:connector-curvature="0"
         id="path1058-5"
         style="fill:#000000;fill-opacity:1;fill-rule:evenodd;stroke:#000000;stroke-width:0.625;stroke-linejoin:round;stroke-opacity:1"
         d="M 8.7185878,4.0337352 -2.2072895,0.01601326 8.7185884,-4.0017078 c -1.7454984,2.3720609 -1.7354408,5.6174519 -6e-7,8.035443 z"
         transform="scale(-0.6)" />
    </marker>
    <marker
       inkscape:stockid="Arrow2Mend"
       orient="auto"
       refY="0"
       refX="0"
       id="Arrow2Mend-7-5"
       style="overflow:visible"
       inkscape:isstock="true">
      <path
         inkscape:connector-curvature="0"
         id="path1058-5-6"
         style="fill:#000000;fill-opacity:1;fill-rule:evenodd;stroke:#000000;stroke-width:0.625;stroke-linejoin:round;stroke-opacity:1"
         d="M 8.7185878,4.0337352 -2.2072895,0.01601326 8.7185884,-4.0017078 c -1.7454984,2.3720609 -1.7354408,5.6174519 -6e-7,8.035443 z"
         transform="scale(-0.6)" />
    </marker>
    <marker
       inkscape:stockid="Arrow2Mend"
       orient="auto"
       refY="0"
       refX="0"
       id="Arrow2Mend-7-5-9"
       style="overflow:visible"
       inkscape:isstock="true">
      <path
         inkscape:connector-curvature="0"
         id="path1058-5-6-1"
         style="fill:#000000;fill-opacity:1;fill-rule:evenodd;stroke:#000000;stroke-width:0.625;stroke-linejoin:round;stroke-opacity:1"
         d="M 8.7185878,4.0337352 -2.2072895,0.01601326 8.7185884,-4.0017078 c -1.7454984,2.3720609 -1.7354408,5.6174519 -6e-7,8.035443 z"
         transform="scale(-0.6)" />
    </marker>
    <marker
       inkscape:stockid="Arrow2Mend"
       orient="auto"
       refY="0"
       refX="0"
       id="Arrow2Mend-7-5-9-7"
       style="overflow:visible"
       inkscape:isstock="true">
      <path
         inkscape:connector-curvature="0"
         id="path1058-5-6-1-0"
         style="fill:#000000;fill-opacity:1;fill-rule:evenodd;stroke:#000000;stroke-width:0.625;stroke-linejoin:round;stroke-opacity:1"
         d="M 8.7185878,4.0337352 -2.2072895,0.01601326 8.7185884,-4.0017078 c -1.7454984,2.3720609 -1.7354408,5.6174519 -6e-7,8.035443 z"
         transform="scale(-0.6)" />
    </marker>
    <marker
       inkscape:stockid="Arrow2Mend"
       orient="auto"
       refY="0"
       refX="0"
       id="Arrow2Mend-7-5-9-7-3"
       style="overflow:visible"
       inkscape:isstock="true">
      <path
         inkscape:connector-curvature="0"
         id="path1058-5-6-1-0-6"
         style="fill:#000000;fill-opacity:1;fill-rule:evenodd;stroke:#000000;stroke-width:0.625;stroke-linejoin:round;stroke-opacity:1"
         d="M 8.7185878,4.0337352 -2.2072895,0.01601326 8.7185884,-4.0017078 c -1.7454984,2.3720609 -1.7354408,5.6174519 -6e-7,8.035443 z"
         transform="scale(-0.6)" />
    </marker>
    <marker
       inkscape:stockid="Arrow2Mend"
       orient="auto"
       refY="0"
       refX="0"
       id="Arrow2Mend-7-5-9-7-3-6"
       style="overflow:visible"
       inkscape:isstock="true">
      <path
         inkscape:connector-curvature="0"
         id="path1058-5-6-1-0-6-2"
         style="fill:#000000;fill-opacity:1;fill-rule:evenodd;stroke:#000000;stroke-width:0.625;stroke-linejoin:round;stroke-opacity:1"
         d="M 8.7185878,4.0337352 -2.2072895,0.01601326 8.7185884,-4.0017078 c -1.7454984,2.3720609 -1.7354408,5.6174519 -6e-7,8.035443 z"
         transform="scale(-0.6)" />
    </marker>
  </defs>
  <sodipodi:namedview
     id="base"
     pagecolor="#ffffff"
     bordercolor="#666666"
     borderopacity="1.0"
     inkscape:pageopacity="0.0"
     inkscape:pageshadow="2"
     inkscape:zoom="0.42973373"
     inkscape:cx="624.09139"
     inkscape:cy="850.61696"
     inkscape:document-units="mm"
     inkscape:current-layer="layer1"
     showgrid="false"
     inkscape:window-width="2560"
     inkscape:window-height="1379"
     inkscape:window-x="0"
     inkscape:window-y="0"
     inkscape:window-maximized="1"
     fit-margin-top="0"
     fit-margin-left="0"
     fit-margin-right="0"
     fit-margin-bottom="0" />
  <metadata
     id="metadata5">
    <rdf:RDF>
      <cc:Work
         rdf:about="">
        <dc:format>image/svg+xml</dc:format>
        <dc:type
           rdf:resource="http://purl.org/dc/dcmitype/StillImage" />
        <dc:title></dc:title>
      </cc:Work>
    </rdf:RDF>
  </metadata>
  <g
     inkscape:label="Capa 1"
     inkscape:groupmode="layer"
     id="layer1"
     transform="translate(1285.1928,31.995053)">
    <ellipse
       style="fill:none;fill-opacity:1;stroke:#050000;stroke-width:3;stroke-miterlimit:4;stroke-dasharray:none;stroke-opacity:1"
       id="path815"
       cx="-938.89026"
       cy="292.29047"
       rx="284.61606"
       ry="165.93155"
       transform="rotate(6.9116493)" />
    <circle
       style="fill:#000000;fill-opacity:1;stroke:#050000;stroke-width:4.63150787;stroke-miterlimit:4;stroke-dasharray:none;stroke-opacity:1"
       id="path817"
       cx="-1245.0535"
       cy="121.61904"
       r="7.8776989" />
    <circle
       style="fill:#000000;fill-opacity:1;stroke:#050000;stroke-width:4.63150787;stroke-miterlimit:4;stroke-dasharray:none;stroke-opacity:1"
       id="path817-3"
       cx="-686.40479"
       cy="219.51488"
       r="7.8776994" />
    <circle
       style="fill:#000000;fill-opacity:1;stroke:#050000;stroke-width:4.63150787;stroke-miterlimit:4;stroke-dasharray:none;stroke-opacity:1"
       id="path817-3-6"
       cx="-973.2887"
       cy="10.872023"
       r="7.8776999" />
    <circle
       style="fill:#000000;fill-opacity:1;stroke:#050000;stroke-width:4.63150787;stroke-miterlimit:4;stroke-dasharray:none;stroke-opacity:1"
       id="path817-3-6-7"
       cx="-1078.5929"
       cy="321.77921"
       r="7.8777003" />
    <circle
       style="fill:#000000;fill-opacity:1;stroke:#050000;stroke-width:4.63150787;stroke-miterlimit:4;stroke-dasharray:none;stroke-opacity:1"
       id="path817-3-6-7-5"
       cx="-923.14893"
       cy="346.17758"
       r="7.8777003" />
    <ellipse
       transform="matrix(0.98873702,0.14966331,-0.20268974,0.97924301,0,0)"
       ry="133.2702"
       rx="284.03235"
       cy="317.6044"
       cx="-913.1507"
       id="ellipse894"
       style="fill:none;fill-opacity:1;stroke:#000000;stroke-width:1.00072622;stroke-miterlimit:4;stroke-dasharray:none;stroke-opacity:0.54901963" />
    <ellipse
       style="fill:none;fill-opacity:1;stroke:#000000;stroke-width:1.00603151;stroke-miterlimit:4;stroke-dasharray:none;stroke-opacity:0.54901963"
       id="ellipse896"
       cx="-867.28705"
       cy="347.72476"
       rx="282.83279"
       ry="101.97598"
       transform="matrix(0.98413384,0.17742768,-0.32702437,0.94501591,0,0)" />
    <ellipse
       transform="matrix(0.98187903,0.18950874,-0.6405708,0.76789912,0,0)"
       ry="59.45993"
       rx="279.86148"
       cy="399.23083"
       cx="-724.63647"
       id="ellipse898"
       style="fill:none;fill-opacity:1;stroke:#000000;stroke-width:1.06881428;stroke-miterlimit:4;stroke-dasharray:none;stroke-opacity:0.54901963" />
    <text
       xml:space="preserve"
       style="font-style:normal;font-weight:normal;font-size:33.39658737px;line-height:1.25;font-family:sans-serif;letter-spacing:0px;word-spacing:0px;fill:#000000;fill-opacity:1;stroke:none;stroke-width:0.83491468"
       x="-979.68542"
       y="-7.6488099"
       id="text902"><tspan
         sodipodi:role="line"
         id="tspan900"
         x="-979.68542"
         y="-7.6488099"
         style="stroke-width:0.83491468">P</tspan></text>
    <text
       xml:space="preserve"
       style="font-style:normal;font-weight:normal;font-size:33.39658737px;line-height:1.25;font-family:sans-serif;letter-spacing:0px;word-spacing:0px;fill:#000000;fill-opacity:1;stroke:none;stroke-width:0.83491468"
       x="-1288.4705"
       y="129.10527"
       id="text902-5"><tspan
         sodipodi:role="line"
         id="tspan900-6"
         x="-1288.4705"
         y="129.10527"
         style="stroke-width:0.83491468">M</tspan></text>
    <text
       id="text924"
       y="233.87492"
       x="-668.9397"
       style="font-style:normal;font-weight:normal;font-size:33.39658737px;line-height:1.25;font-family:sans-serif;letter-spacing:0px;word-spacing:0px;fill:#000000;fill-opacity:1;stroke:none;stroke-width:0.83491468"
       xml:space="preserve"><tspan
         style="stroke-width:0.83491468"
         y="233.87492"
         x="-668.9397"
         id="tspan922"
         sodipodi:role="line">O</tspan></text>
    <text
       id="text928"
       y="359.29544"
       x="-1109.8253"
       style="font-style:normal;font-weight:normal;font-size:33.39658737px;line-height:1.25;font-family:sans-serif;letter-spacing:0px;word-spacing:0px;fill:#000000;fill-opacity:1;stroke:none;stroke-width:0.83491468"
       xml:space="preserve"><tspan
         style="stroke-width:0.83491468"
         y="359.29544"
         x="-1109.8253"
         id="tspan926"
         sodipodi:role="line">N'</tspan></text>
    <text
       xml:space="preserve"
       style="font-style:normal;font-weight:normal;font-size:33.39658737px;line-height:1.25;font-family:sans-serif;letter-spacing:0px;word-spacing:0px;fill:#000000;fill-opacity:1;stroke:none;stroke-width:0.83491468"
       x="-912.63385"
       y="381.08344"
       id="text932"><tspan
         sodipodi:role="line"
         id="tspan930"
         x="-912.63385"
         y="381.08344"
         style="stroke-width:0.83491468">N</tspan></text>
    <ellipse
       style="fill:none;fill-opacity:1;stroke:#000000;stroke-width:1.37167048;stroke-miterlimit:4;stroke-dasharray:none;stroke-opacity:0.54901963"
       id="ellipse936"
       cx="-352.2218"
       cy="664.11902"
       rx="275.92307"
       ry="42.908817"
       transform="matrix(0.98124827,0.19274809,-0.93362159,0.35826071,0,0)" />
    <g
       id="g983"
       transform="translate(11.091685,19.510675)">
      <circle
         r="18.333521"
         cy="31.934158"
         cx="-734.60327"
         id="path938"
         style="fill:none;fill-opacity:1;stroke:#050000;stroke-width:1.41434288;stroke-miterlimit:4;stroke-dasharray:none;stroke-opacity:1" />
      <circle
         r="2.9816692"
         cy="31.934158"
         cx="-734.60327"
         id="path940"
         style="fill:#000000;fill-opacity:1;stroke:#050000;stroke-width:0.7171374;stroke-miterlimit:4;stroke-dasharray:none;stroke-opacity:1" />
    </g>
    <g
       id="g973"
       transform="translate(-869.02687,-176.93243)">
      <g
         word-spacing="normal"
         letter-spacing="normal"
         font-size-adjust="none"
         font-stretch="normal"
         font-weight="normal"
         font-variant="normal"
         font-style="normal"
         stroke-miterlimit="10.433"
         xml:space="preserve"
         transform="matrix(0.59011213,0,0,-0.59011213,-103.26962,480.49841)"
         id="content"
         style="font-style:normal;font-variant:normal;font-weight:normal;font-stretch:normal;letter-spacing:normal;word-spacing:normal;text-anchor:start;fill:none;fill-opacity:1;fill-rule:evenodd;stroke:#000000;stroke-linecap:butt;stroke-linejoin:miter;stroke-miterlimit:10.43299961;stroke-dasharray:none;stroke-dashoffset:0;stroke-opacity:1"><path
           id="path968"
           d="m 490.31,448.44 -0.07,-0.06 -0.07,-0.07 -0.08,-0.07 -0.08,-0.07 -0.08,-0.08 -0.09,-0.08 -0.09,-0.09 -0.1,-0.08 -0.09,-0.09 -0.1,-0.09 -0.2,-0.19 -0.19,-0.2 -0.19,-0.2 -0.09,-0.11 -0.09,-0.1 -0.09,-0.1 -0.08,-0.1 -0.08,-0.11 -0.08,-0.1 -0.07,-0.1 -0.07,-0.1 -0.05,-0.1 -0.06,-0.1 -0.04,-0.1 -0.04,-0.09 -0.03,-0.09 -0.03,-0.09 -0.01,-0.09 -0.01,-0.09 c 0,-0.5 0.5,-1 1,-1 0.46,0 0.71,0.36 0.96,0.66 0.59,0.75 1.73,2.14 3.94,3.23 0.34,0.21 0.84,0.46 0.84,1.05 0,0.5 -0.34,0.75 -0.7,1 -1.1,0.75 -1.64,1.64 -2.05,2.83 -0.09,0.45 -0.3,1.11 -0.99,1.11 -0.7,0 -1,-0.66 -1,-1.05 0,-0.25 0.4,-1.84 1.19,-2.89 h -16.78 c -0.84,0 -1.75,0 -1.75,-1 0,-1 0.91,-1 1.75,-1 z"
           inkscape:connector-curvature="0"
           style="fill:#000000;stroke-width:0" /><path
           id="path970"
           d="m 463.49,410.09 -0.05,-0.18 -0.04,-0.17 -0.05,-0.16 -0.04,-0.15 -0.04,-0.15 -0.05,-0.13 -0.05,-0.13 -0.05,-0.12 -0.05,-0.11 -0.06,-0.11 -0.07,-0.1 -0.07,-0.09 -0.07,-0.09 -0.09,-0.07 -0.09,-0.08 -0.11,-0.06 -0.11,-0.07 -0.13,-0.05 -0.13,-0.05 -0.15,-0.05 -0.16,-0.04 -0.09,-0.02 -0.09,-0.01 -0.09,-0.02 -0.1,-0.02 -0.1,-0.01 -0.1,-0.01 -0.11,-0.01 -0.12,-0.02 -0.11,-0.01 -0.13,-0.01 h -0.12 l -0.13,-0.01 -0.14,-0.01 h -0.14 l -0.14,-0.01 h -0.15 l -0.16,-0.01 h -0.16 -0.16 -0.17 -0.18 -0.18 c -0.85,0 -1.35,0 -1.35,-1 0,-0.55 0.46,-0.55 1.35,-0.55 h 17.78 c 7.87,0 13.75,5.87 13.75,10.76 0,3.58 -2.89,6.47 -7.72,7.02 5.19,0.95 10.42,4.64 10.42,9.38 0,3.68 -3.3,6.87 -9.28,6.87 l -0.69,-1.55 c 4.38,0 5.42,-2.93 5.42,-5.12 0,-4.39 -4.28,-9.13 -10.35,-9.13 h -7.27 l -0.3,-1.09 h 9.41 c 4.78,0 5.73,-3.69 5.73,-5.83 0,-4.94 -4.43,-9.76 -10.31,-9.76 h -6.78 c -0.69,0 -0.8,0 -1.09,0.04 -0.5,0.05 -0.64,0.1 -0.64,0.5 0,0.14 0,0.25 0.25,1.14 l 3.43,13.91 0.3,1.09 3.08,12.36 c 0.45,1.74 0.54,1.89 2.7,1.89 h 6.42 l 0.69,1.55 h -16.73 c -0.94,0 -1.44,0 -1.44,-1 0,-0.55 0.44,-0.55 1.39,-0.55 0.09,0 1.05,0 1.89,-0.09 0.89,-0.11 1.34,-0.16 1.34,-0.8 0,-0.2 -0.04,-0.36 -0.2,-0.95 z"
           inkscape:connector-curvature="0"
           style="fill:#000000;stroke-width:0" /></g>    </g>
    <path
       style="fill:none;stroke:#000000;stroke-width:1;stroke-linecap:butt;stroke-linejoin:miter;stroke-opacity:1;stroke-miterlimit:4;stroke-dasharray:none"
       d="m -1079.1958,320.98523 c 0,0 69.1697,-72.57142 105.45537,-309.940473"
       id="path985"
       inkscape:connector-curvature="0"
       sodipodi:nodetypes="cc" />
    <path
       style="fill:#000000;fill-opacity:1;stroke:none;stroke-width:1;stroke-miterlimit:4;stroke-dasharray:none;stroke-opacity:0.54901961"
       id="path987"
       d="m -972.14775,28.012864 c 0.9852,0.06143 1.95477,0.251307 2.93216,0.383569 0.75568,0.09793 1.51697,0.132157 2.27812,0.146318 0.52136,-0.02906 1.03248,0.07431 1.54884,0.126103 0.5075,0.04333 1.01693,0.05336 1.52599,0.05818 0.40534,-0.01431 0.79854,-0.0024 1.19647,0.07181 0.31475,0.07498 0.63704,0.09567 0.95914,0.107651 0.36682,-0.01206 0.57251,0.139224 0.47599,0.5241 -0.13216,0.36263 -0.3102,0.70812 -0.48115,1.053869 -0.23066,0.425144 -0.3837,0.883267 -0.53308,1.341181 -0.12835,0.431509 -0.32745,0.836457 -0.47474,1.260822 -0.17063,0.437959 -0.27379,0.892992 -0.33354,1.357892 -0.0494,0.477589 -0.0482,0.958498 -0.0486,1.438076 0.0334,0.465574 -0.0865,0.898147 -0.24929,1.327656 -0.10311,0.285877 -0.0552,0.143613 -0.14415,0.426646 0,0 -2.50963,1.189595 -2.50963,1.189595 v 0 c 0.0821,-0.298518 0.0367,-0.149457 0.1364,-0.447087 0.15443,-0.401998 0.32858,-0.793909 0.29292,-1.237044 0.003,-0.488587 0,-0.977807 0.0327,-1.465524 0.0505,-0.478713 0.13026,-0.958197 0.31174,-1.406866 0.12766,-0.43497 0.33221,-0.835986 0.47278,-1.266444 0.16626,-0.461182 0.28551,-0.941473 0.51657,-1.377874 0.17553,-0.327268 0.31533,-0.671708 0.488,-0.999709 0.0114,-0.0327 0.0154,-0.06924 0.0345,-0.09809 0.0225,-0.03389 0.10062,-0.03554 0.0991,0.02991 0,0.01601 -0.34039,-0.06585 -0.3478,-0.02627 -0.32803,-0.02212 -0.65262,-0.06574 -0.97443,-0.134014 -0.38799,-0.05379 -0.77891,-0.03045 -1.16962,-0.04123 -0.51295,-0.01146 -1.02603,-0.03077 -1.5368,-0.08123 -0.50925,-0.05735 -1.01661,-0.127942 -1.53091,-0.111561 -0.7616,-0.02495 -1.52228,-0.07941 -2.27727,-0.185918 -0.98115,-0.145616 -1.96006,-0.320442 -2.95346,-0.354531 0,0 2.26306,-1.609995 2.26306,-1.609995 z"
       inkscape:connector-curvature="0" />
    <circle
       style="fill:#000000;fill-opacity:1;stroke:none;stroke-width:1;stroke-miterlimit:4;stroke-dasharray:none;stroke-opacity:0.54901961"
       id="path997"
       cx="-970.41608"
       cy="34.033966"
       r="1.2160764" />
    <circle
       style="fill:#000000;fill-opacity:1;stroke:none;stroke-width:1;stroke-miterlimit:4;stroke-dasharray:none;stroke-opacity:0.54901961"
       id="path997-3"
       cx="-1062.7737"
       cy="315.3605"
       r="1.2160764" />
    <path
       style="fill:#000000;fill-opacity:1;stroke:none;stroke-width:1;stroke-miterlimit:4;stroke-dasharray:none;stroke-opacity:0.54901961"
       id="path987-6"
       d="m -1063.0712,308.77064 c 0.943,0.29176 1.8405,0.70472 2.7592,1.0635 0.7114,0.27317 1.4432,0.48581 2.1795,0.67887 0.5136,0.0945 0.986,0.31543 1.4756,0.48743 0.483,0.16163 0.9757,0.29145 1.4694,0.41604 0.3972,0.0816 0.7765,0.18616 1.1458,0.35162 0.2883,0.14705 0.5966,0.24309 0.9068,0.33058 0.3594,0.0747 0.5236,0.27018 0.3392,0.62149 -0.2139,0.32128 -0.4683,0.61511 -0.716,0.91085 -0.3242,0.35886 -0.5809,0.76802 -0.834,1.17785 -0.2263,0.38914 -0.5152,0.73579 -0.7584,1.11352 -0.2689,0.38544 -0.4764,0.80336 -0.644,1.24111 -0.1601,0.45261 -0.2724,0.92022 -0.3863,1.38605 -0.078,0.46026 -0.2962,0.85238 -0.5551,1.23157 -0.1675,0.25355 -0.087,0.12661 -0.2406,0.38067 0,0 -2.7192,0.56492 -2.7192,0.56492 v 0 c 0.15,-0.2708 0.071,-0.13654 0.2378,-0.40237 0.2448,-0.35431 0.5064,-0.69416 0.5761,-1.13323 0.1151,-0.47484 0.2304,-0.95029 0.3773,-1.4165 0.1624,-0.45323 0.3524,-0.90054 0.6344,-1.29385 0.2265,-0.39265 0.5199,-0.73418 0.7578,-1.11942 0.2703,-0.40903 0.4993,-0.84773 0.8267,-1.2174 0.2476,-0.27672 0.4646,-0.57853 0.7097,-0.85662 0.018,-0.0292 0.031,-0.0637 0.056,-0.0873 0.03,-0.0275 0.1061,-0.0108 0.089,0.0524 0,0.0155 -0.3153,-0.14413 -0.3318,-0.10749 -0.3135,-0.0987 -0.6187,-0.21759 -0.9154,-0.35978 -0.3644,-0.14369 -0.7498,-0.21303 -1.1271,-0.31559 -0.4957,-0.132 -0.9898,-0.27163 -1.4744,-0.44095 -0.4813,-0.17564 -0.9578,-0.36382 -1.4615,-0.46905 -0.7343,-0.20362 -1.4607,-0.43576 -2.1693,-0.71714 -0.9193,-0.37267 -1.8295,-0.77317 -2.7869,-1.04032 0,0 2.5787,-1.03156 2.5787,-1.03156 z"
       inkscape:connector-curvature="0" />
    <path
       style="fill:none;stroke:#000000;stroke-width:1.5;stroke-linecap:butt;stroke-linejoin:miter;stroke-miterlimit:4;stroke-dasharray:none;stroke-opacity:1;marker-end:url(#Arrow2Mend-7)"
       d="m -990.09177,99.726932 23.8912,2.985868"
       id="path1029-3"
       inkscape:connector-curvature="0" />
    <path
       style="fill:none;stroke:#000000;stroke-width:1.5;stroke-linecap:butt;stroke-linejoin:miter;stroke-miterlimit:4;stroke-dasharray:none;stroke-opacity:1;marker-end:url(#Arrow2Mend-7-5)"
       d="m -1000.331,140.83081 23.68015,4.35355"
       id="path1029-3-2"
       inkscape:connector-curvature="0" />
    <path
       style="fill:none;stroke:#000000;stroke-width:1.5;stroke-linecap:butt;stroke-linejoin:miter;stroke-miterlimit:4;stroke-dasharray:none;stroke-opacity:1;marker-end:url(#Arrow2Mend-7-5-9)"
       d="m -1008.3652,169.53891 23.68025,4.35356"
       id="path1029-3-2-2"
       inkscape:connector-curvature="0" />
    <path
       style="fill:none;stroke:#000000;stroke-width:1.5;stroke-linecap:butt;stroke-linejoin:miter;stroke-miterlimit:4;stroke-dasharray:none;stroke-opacity:1;marker-end:url(#Arrow2Mend-7-5-9-7)"
       d="m -1022.6245,211.54426 23.58246,4.85599"
       id="path1029-3-2-2-9"
       inkscape:connector-curvature="0" />
    <path
       style="fill:none;stroke:#000000;stroke-width:1.5;stroke-linecap:butt;stroke-linejoin:miter;stroke-miterlimit:4;stroke-dasharray:none;stroke-opacity:1;marker-end:url(#Arrow2Mend-7-5-9-7-3)"
       d="m -1037.1063,247.77693 22.8926,7.45903"
       id="path1029-3-2-2-9-0"
       inkscape:connector-curvature="0" />
    <path
       style="fill:none;stroke:#000000;stroke-width:1.5;stroke-linecap:butt;stroke-linejoin:miter;stroke-miterlimit:4;stroke-dasharray:none;stroke-opacity:1;marker-end:url(#Arrow2Mend-7-5-9-7-3-6)"
       d="m -1053.553,282.31271 22.8926,7.45903"
       id="path1029-3-2-2-9-0-6"
       inkscape:connector-curvature="0" />
    <path
       sodipodi:type="star"
       style="fill:#757575;fill-opacity:1;stroke:none;stroke-width:1.5;stroke-miterlimit:4;stroke-dasharray:none;stroke-opacity:0.54901961"
       id="path1425"
       sodipodi:sides="3"
       sodipodi:cx="-837.83362"
       sodipodi:cy="68.362808"
       sodipodi:r1="7.6780467"
       sodipodi:r2="3.8390234"
       sodipodi:arg1="0.26179939"
       sodipodi:arg2="1.3089969"
       inkscape:flatsided="false"
       inkscape:rounded="0"
       inkscape:randomized="0"
       d="m -830.41719,70.350033 -6.42282,1.720987 -6.42281,1.720987 1.72099,-6.422811 1.72099,-6.422811 4.70182,4.701824 z"
       inkscape:transform-center-x="-0.51609687"
       inkscape:transform-center-y="-0.6305608"
       transform="matrix(0.58940442,0.01970242,-0.01875582,0.56108646,-343.69806,46.782691)" />
    <path
       sodipodi:type="star"
       style="fill:#757575;fill-opacity:1;stroke:none;stroke-width:1.5;stroke-miterlimit:4;stroke-dasharray:none;stroke-opacity:0.54901961"
       id="path1425-1"
       sodipodi:sides="3"
       sodipodi:cx="-837.83362"
       sodipodi:cy="68.362808"
       sodipodi:r1="7.6780467"
       sodipodi:r2="3.8390234"
       sodipodi:arg1="0.26179939"
       sodipodi:arg2="1.3089969"
       inkscape:flatsided="false"
       inkscape:rounded="0"
       inkscape:randomized="0"
       d="m -830.41719,70.350033 -6.42282,1.720987 -6.42281,1.720987 1.72099,-6.422811 1.72099,-6.422811 4.70182,4.701824 z"
       inkscape:transform-center-x="-0.51609687"
       inkscape:transform-center-y="-0.6305608"
       transform="matrix(0.58940441,0.01970242,-0.01875582,0.56108645,-353.37764,76.892293)" />
    <path
       sodipodi:type="star"
       style="fill:#757575;fill-opacity:1;stroke:none;stroke-width:1.5;stroke-miterlimit:4;stroke-dasharray:none;stroke-opacity:0.54901961"
       id="path1425-1-8"
       sodipodi:sides="3"
       sodipodi:cx="-837.83362"
       sodipodi:cy="68.362808"
       sodipodi:r1="7.6780467"
       sodipodi:r2="3.8390234"
       sodipodi:arg1="0.26179939"
       sodipodi:arg2="1.3089969"
       inkscape:flatsided="false"
       inkscape:rounded="0"
       inkscape:randomized="0"
       d="m -830.41719,70.350033 -6.42282,1.720987 -6.42281,1.720987 1.72099,-6.422811 1.72099,-6.422811 4.70182,4.701824 z"
       inkscape:transform-center-x="-0.66747735"
       inkscape:transform-center-y="-0.47128591"
       transform="matrix(0.58927643,-0.02321715,0.02210168,0.56096462,-368.53231,80.697501)" />
    <path
       sodipodi:type="star"
       style="fill:#757575;fill-opacity:1;stroke:none;stroke-width:1.5;stroke-miterlimit:4;stroke-dasharray:none;stroke-opacity:0.54901961"
       id="path1425-1-8-7"
       sodipodi:sides="3"
       sodipodi:cx="-837.83362"
       sodipodi:cy="68.362808"
       sodipodi:r1="7.6780467"
       sodipodi:r2="3.8390234"
       sodipodi:arg1="0.26179939"
       sodipodi:arg2="1.3089969"
       inkscape:flatsided="false"
       inkscape:rounded="0"
       inkscape:randomized="0"
       d="m -830.41719,70.350033 -6.42282,1.720987 -6.42281,1.720987 1.72099,-6.422811 1.72099,-6.422811 4.70182,4.701824 z"
       inkscape:transform-center-x="-0.77919377"
       inkscape:transform-center-y="-0.34963134"
       transform="matrix(0.58711877,-0.05547343,0.0528082,0.55891061,-380.91489,81.749022)" />
    <path
       sodipodi:type="star"
       style="fill:#757575;fill-opacity:1;stroke:none;stroke-width:1.5;stroke-miterlimit:4;stroke-dasharray:none;stroke-opacity:0.54901961"
       id="path1425-1-8-7-9"
       sodipodi:sides="3"
       sodipodi:cx="-837.83362"
       sodipodi:cy="68.362808"
       sodipodi:r1="7.6780467"
       sodipodi:r2="3.8390234"
       sodipodi:arg1="0.26179939"
       sodipodi:arg2="1.3089969"
       inkscape:flatsided="false"
       inkscape:rounded="0"
       inkscape:randomized="0"
       d="m -830.41719,70.350033 -6.42282,1.720987 -6.42281,1.720987 1.72099,-6.422811 1.72099,-6.422811 4.70182,4.701824 z"
       inkscape:transform-center-x="-0.94202593"
       inkscape:transform-center-y="-0.16559929"
       transform="matrix(0.58059167,-0.10343632,0.09846671,0.55269711,-397.75611,83.929705)" />
    <path
       sodipodi:type="star"
       style="fill:#757575;fill-opacity:1;stroke:none;stroke-width:1.5;stroke-miterlimit:4;stroke-dasharray:none;stroke-opacity:0.54901961"
       id="path1425-1-8-7-9-2"
       sodipodi:sides="3"
       sodipodi:cx="-837.83362"
       sodipodi:cy="68.362808"
       sodipodi:r1="7.6780467"
       sodipodi:r2="3.8390234"
       sodipodi:arg1="0.26179939"
       sodipodi:arg2="1.3089969"
       inkscape:flatsided="false"
       inkscape:rounded="0"
       inkscape:randomized="0"
       d="m -830.41719,70.350033 -6.42282,1.720987 -6.42281,1.720987 1.72099,-6.422811 1.72099,-6.422811 4.70182,4.701824 z"
       inkscape:transform-center-x="-0.94202593"
       inkscape:transform-center-y="-0.16559929"
       transform="matrix(0.58059167,-0.10343632,0.09846671,0.55269712,-406.33794,108.72201)" />
    <path
       sodipodi:type="star"
       style="fill:#757575;fill-opacity:1;stroke:none;stroke-width:1.5;stroke-miterlimit:4;stroke-dasharray:none;stroke-opacity:0.54901961"
       id="path1425-1-8-7-9-2-0"
       sodipodi:sides="3"
       sodipodi:cx="-837.83362"
       sodipodi:cy="68.362808"
       sodipodi:r1="7.6780467"
       sodipodi:r2="3.8390234"
       sodipodi:arg1="0.26179939"
       sodipodi:arg2="1.3089969"
       inkscape:flatsided="false"
       inkscape:rounded="0"
       inkscape:randomized="0"
       d="m -830.41719,70.350033 -6.42282,1.720987 -6.42281,1.720987 1.72099,-6.422811 1.72099,-6.422811 4.70182,4.701824 z"
       inkscape:transform-center-x="-1.1256333"
       inkscape:transform-center-y="0.05254943"
       transform="matrix(0.56788821,-0.15902435,0.15138401,0.540604,-440.05417,112.25809)" />
    <path
       sodipodi:type="star"
       style="fill:#757575;fill-opacity:1;stroke:none;stroke-width:1.5;stroke-miterlimit:4;stroke-dasharray:none;stroke-opacity:0.54901961"
       id="path1425-1-8-7-9-2-0-2"
       sodipodi:sides="3"
       sodipodi:cx="-837.83362"
       sodipodi:cy="68.362808"
       sodipodi:r1="7.6780467"
       sodipodi:r2="3.8390234"
       sodipodi:arg1="0.26179939"
       sodipodi:arg2="1.3089969"
       inkscape:flatsided="false"
       inkscape:rounded="0"
       inkscape:randomized="0"
       d="m -830.41719,70.350033 -6.42282,1.720987 -6.42281,1.720987 1.72099,-6.422811 1.72099,-6.422811 4.70182,4.701824 z"
       inkscape:transform-center-x="-12.105842"
       inkscape:transform-center-y="-24.950576"
       transform="matrix(0.5678882,-0.15902435,0.15138401,0.540604,-450.98414,141.25232)" />
    <path
       sodipodi:type="star"
       style="fill:#000000;fill-opacity:1;stroke:none;stroke-width:1.5;stroke-miterlimit:4;stroke-dasharray:none;stroke-opacity:0.54901961"
       id="path1425-1-8-7-9-2-0-2-3"
       sodipodi:sides="3"
       sodipodi:cx="-837.83362"
       sodipodi:cy="68.362808"
       sodipodi:r1="7.6780467"
       sodipodi:r2="3.8390234"
       sodipodi:arg1="0.26179939"
       sodipodi:arg2="1.3089969"
       inkscape:flatsided="false"
       inkscape:rounded="0"
       inkscape:randomized="0"
       d="m -830.41719,70.350033 -6.42282,1.720987 -6.42281,1.720987 1.72099,-6.422811 1.72099,-6.422811 4.70182,4.701824 z"
       inkscape:transform-center-x="-10.372611"
       inkscape:transform-center-y="-49.444046"
       transform="matrix(0.96887323,-0.53933944,0.51342683,0.92232365,-253.17186,-285.26394)" />
    <g
       id="g1626"
       transform="matrix(0.53415371,0,0,0.53415371,-1117.8779,-65.766157)">
      <g
         word-spacing="normal"
         letter-spacing="normal"
         font-size-adjust="none"
         font-stretch="normal"
         font-weight="normal"
         font-variant="normal"
         font-style="normal"
         stroke-miterlimit="10.433"
         xml:space="preserve"
         transform="matrix(0.59011213,0,0,-0.59011213,-103.26962,480.49841)"
         id="g1624"
         style="font-style:normal;font-variant:normal;font-weight:normal;font-stretch:normal;letter-spacing:normal;word-spacing:normal;text-anchor:start;fill:none;fill-opacity:1;fill-rule:evenodd;stroke:#000000;stroke-linecap:butt;stroke-linejoin:miter;stroke-miterlimit:10.43299961;stroke-dasharray:none;stroke-dashoffset:0;stroke-opacity:1"><path
           id="path1616"
           d="m 481.22,440.23 v 0 0.01 0 0.01 0.02 0.01 0.02 0.02 l -0.01,0.02 v 0.02 l -0.01,0.02 v 0.02 l -0.01,0.02 -0.01,0.03 -0.01,0.02 -0.01,0.03 -0.02,0.02 -0.01,0.03 -0.02,0.02 -0.02,0.02 -0.02,0.03 -0.02,0.01 -0.01,0.01 -0.01,0.01 -0.02,0.01 -0.01,0.01 -0.02,0.01 -0.01,0.01 -0.02,0.01 -0.01,0.01 -0.02,0.01 h -0.02 l -0.02,0.01 -0.02,0.01 h -0.02 l -0.02,0.01 -0.03,0.01 h -0.02 -0.02 l -0.03,0.01 h -0.03 -0.02 l -0.03,0.01 h -0.03 -0.03 c -0.75,0 -5.48,-0.46 -6.33,-0.55 -0.4,-0.05 -0.7,-0.3 -0.7,-0.95 0,-0.6 0.45,-0.6 1.2,-0.6 2.39,0 2.49,-0.34 2.49,-0.84 l -0.14,-1 -3,-11.81 c -0.89,1.84 -2.35,3.18 -4.58,3.18 l 0.05,-1.09 c 3.23,0 3.93,-4.08 3.93,-4.37 0,-0.32 -0.09,-0.61 -0.14,-0.86 l -2.5,-9.77 c -0.25,-0.89 -0.25,-0.98 -1,-1.84 -2.18,-2.74 -4.23,-3.53 -5.62,-3.53 -2.49,0 -3.19,2.73 -3.19,4.68 0,2.49 1.59,8.61 2.74,10.91 1.54,2.94 3.79,4.78 5.78,4.78 l -0.05,1.09 c -5.83,0 -12,-7.31 -12,-14.59 0,-4.69 2.73,-7.97 6.62,-7.97 0.99,0 3.49,0.21 6.47,3.74 0.41,-2.1 2.14,-3.74 4.53,-3.74 1.75,0 2.9,1.14 3.69,2.74 0.85,1.79 1.5,4.84 1.5,4.93 0,0.5 -0.45,0.5 -0.59,0.5 -0.5,0 -0.55,-0.2 -0.7,-0.9 -0.85,-3.24 -1.75,-6.17 -3.79,-6.17 -1.34,0 -1.5,1.29 -1.5,2.29 0,1.19 0.1,1.55 0.3,2.39 z"
           inkscape:connector-curvature="0"
           style="fill:#000000;stroke-width:0" /><path
           id="path1618"
           d="m 500.92,424.84 -0.13,-0.01 -0.13,-0.01 -0.12,-0.02 -0.12,-0.03 -0.12,-0.03 -0.12,-0.04 -0.11,-0.04 -0.11,-0.04 -0.11,-0.05 -0.11,-0.06 -0.1,-0.06 -0.09,-0.06 -0.1,-0.07 -0.08,-0.07 -0.09,-0.07 -0.08,-0.08 -0.08,-0.08 -0.07,-0.08 -0.07,-0.09 -0.06,-0.08 -0.06,-0.09 -0.06,-0.1 -0.05,-0.09 -0.04,-0.1 -0.04,-0.09 -0.04,-0.1 -0.03,-0.1 -0.02,-0.1 -0.02,-0.1 -0.02,-0.11 -0.01,-0.1 v -0.1 c 0,-0.7 0.44,-1.44 1.55,-1.44 1.09,0 2.28,0.85 2.28,2.78 0,2.25 -2.14,4.28 -5.92,4.28 -6.58,0 -8.42,-5.07 -8.42,-7.26 0,-3.89 3.68,-4.64 5.12,-4.94 2.59,-0.5 5.19,-1.05 5.19,-3.78 0,-1.3 -1.14,-5.48 -7.13,-5.48 -0.7,0 -4.53,0 -5.68,2.64 1.9,-0.25 3.14,1.25 3.14,2.64 0,1.14 -0.8,1.75 -1.85,1.75 -1.29,0 -2.78,-1.05 -2.78,-3.3 0,-2.84 2.85,-4.83 7.13,-4.83 8.06,0 10.01,6.03 10.01,8.27 0,1.79 -0.95,3.04 -1.55,3.64 -1.34,1.39 -2.79,1.64 -4.98,2.09 -1.8,0.39 -3.78,0.75 -3.78,2.99 0,1.45 1.19,4.48 5.58,4.48 1.23,0 3.73,-0.34 4.48,-2.28 z"
           inkscape:connector-curvature="0"
           style="fill:#000000;stroke-width:0" /><path
           id="path1620"
           d="m 527.69,418.7 -0.01,0.2 -0.01,0.2 -0.03,0.19 -0.03,0.19 -0.05,0.19 -0.05,0.18 -0.06,0.18 -0.07,0.18 -0.08,0.17 -0.08,0.17 -0.1,0.16 -0.1,0.16 -0.11,0.15 -0.11,0.15 -0.13,0.14 -0.12,0.14 -0.14,0.13 -0.14,0.12 -0.15,0.11 -0.15,0.11 -0.16,0.1 -0.16,0.1 -0.17,0.08 -0.17,0.08 -0.18,0.07 -0.18,0.06 -0.18,0.06 -0.19,0.04 -0.19,0.03 -0.2,0.03 -0.19,0.01 -0.2,0.01 c -2.14,0 -3.89,-1.75 -3.89,-3.89 0,-2.14 1.75,-3.88 3.89,-3.88 2.14,0 3.89,1.74 3.89,3.88 z"
           inkscape:connector-curvature="0"
           style="fill:#000000;stroke-width:0" /><path
           id="path1622"
           d="m 568.58,440.23 v 0 0.01 0 0.01 0.02 0.01 l -0.01,0.02 v 0.02 0.02 l -0.01,0.02 v 0.02 l -0.01,0.02 -0.01,0.02 v 0.03 l -0.02,0.02 -0.01,0.03 -0.01,0.02 -0.02,0.03 -0.02,0.02 -0.02,0.02 -0.02,0.03 -0.01,0.01 -0.01,0.01 -0.02,0.01 -0.01,0.01 -0.01,0.01 -0.02,0.01 -0.02,0.01 -0.01,0.01 -0.02,0.01 -0.02,0.01 h -0.02 l -0.02,0.01 -0.02,0.01 h -0.02 l -0.02,0.01 -0.02,0.01 h -0.02 -0.03 l -0.02,0.01 h -0.03 -0.03 l -0.02,0.01 h -0.03 -0.03 c -0.75,0 -5.49,-0.46 -6.33,-0.55 -0.41,-0.05 -0.7,-0.3 -0.7,-0.95 0,-0.6 0.45,-0.6 1.2,-0.6 2.39,0 2.48,-0.34 2.48,-0.84 l -0.14,-1 -3,-11.81 c -0.89,1.84 -2.34,3.18 -4.57,3.18 l 0.04,-1.09 c 3.24,0 3.94,-4.08 3.94,-4.37 0,-0.32 -0.09,-0.61 -0.14,-0.86 l -2.5,-9.77 c -0.25,-0.89 -0.25,-0.98 -1,-1.84 -2.19,-2.74 -4.24,-3.53 -5.63,-3.53 -2.48,0 -3.18,2.73 -3.18,4.68 0,2.49 1.59,8.61 2.73,10.91 1.55,2.94 3.8,4.78 5.78,4.78 l -0.04,1.09 c -5.83,0 -12,-7.31 -12,-14.59 0,-4.69 2.73,-7.97 6.62,-7.97 0.98,0 3.48,0.21 6.47,3.74 0.41,-2.1 2.14,-3.74 4.53,-3.74 1.75,0 2.89,1.14 3.69,2.74 0.84,1.79 1.5,4.84 1.5,4.93 0,0.5 -0.46,0.5 -0.6,0.5 -0.5,0 -0.54,-0.2 -0.7,-0.9 -0.84,-3.24 -1.75,-6.17 -3.78,-6.17 -1.34,0 -1.5,1.29 -1.5,2.29 0,1.19 0.09,1.55 0.3,2.39 z"
           inkscape:connector-curvature="0"
           style="fill:#000000;stroke-width:0" /></g>    </g>
    <g
       sodipodi:type="inkscape:box3d"
       id="g1654"
       style="fill:#000000;fill-opacity:1;stroke:none;stroke-width:5.6692915;stroke-miterlimit:4;stroke-dasharray:none;stroke-opacity:0.54901961"
       inkscape:perspectiveID="#perspective1652"
       inkscape:corner0="0.44103271 : 0.22153182 : 0 : 1"
       inkscape:corner7="0.42765755 : 0.19318227 : 0.20616968 : 1">
      <path
         sodipodi:type="inkscape:box3dside"
         id="path1656"
         style="fill:#353564;fill-rule:evenodd;stroke:none;stroke-linejoin:round"
         inkscape:box3dsidetype="6"
         d="M -987.00663,63.993051 V 83.66613 l 6.7458,-7.016689 V 59.438714 Z"
         points="-987.00663,83.66613 -980.26083,76.649441 -980.26083,59.438714 -987.00663,63.993051 " />
      <path
         sodipodi:type="inkscape:box3dside"
         id="path1664"
         style="fill:#afafde;fill-rule:evenodd;stroke:none;stroke-linejoin:round"
         inkscape:box3dsidetype="13"
         d="m -987.00663,83.66613 0.4499,-0.435211 6.74425,-7.019212 -0.44835,0.437734 z"
         points="-986.55673,83.230919 -979.81248,76.211707 -980.26083,76.649441 -987.00663,83.66613 " />
      <path
         sodipodi:type="inkscape:box3dside"
         id="path1666"
         style="fill:#e9e9ff;fill-rule:evenodd;stroke:none;stroke-linejoin:round"
         inkscape:box3dsidetype="11"
         d="m -980.26083,59.438714 0.44835,-0.578628 v 17.351621 l -0.44835,0.437734 z"
         points="-979.81248,58.860086 -979.81248,76.211707 -980.26083,76.649441 -980.26083,59.438714 " />
      <path
         sodipodi:type="inkscape:box3dside"
         id="path1658"
         style="fill:#4d4d9f;fill-rule:evenodd;stroke:none;stroke-linejoin:round"
         inkscape:box3dsidetype="5"
         d="m -987.00663,63.993051 0.4499,-0.61952 6.74425,-4.513445 -0.44835,0.578628 z"
         points="-986.55673,63.373531 -979.81248,58.860086 -980.26083,59.438714 -987.00663,63.993051 " />
      <path
         sodipodi:type="inkscape:box3dside"
         id="path1662"
         style="fill:#d7d7ff;fill-rule:evenodd;stroke:none;stroke-linejoin:round"
         inkscape:box3dsidetype="14"
         d="m -986.55673,63.373531 v 19.857388 l 6.74425,-7.019212 V 58.860086 Z"
         points="-986.55673,83.230919 -979.81248,76.211707 -979.81248,58.860086 -986.55673,63.373531 " />
      <path
         sodipodi:type="inkscape:box3dside"
         id="path1660"
         style="fill:#8686bf;fill-rule:evenodd;stroke:none;stroke-linejoin:round"
         inkscape:box3dsidetype="3"
         d="m -987.00663,63.993051 0.4499,-0.61952 v 19.857388 l -0.4499,0.435211 z"
         points="-986.55673,63.373531 -986.55673,83.230919 -987.00663,83.66613 -987.00663,63.993051 " />
    </g>
    <path
       style="fill:none;stroke:#000000;stroke-width:1.5;stroke-linecap:butt;stroke-linejoin:miter;stroke-miterlimit:4;stroke-dasharray:none;stroke-opacity:1;marker-end:url(#Arrow2Mend)"
       d="m -983.04297,70.779055 23.89124,2.985868"
       id="path1029"
       inkscape:connector-curvature="0" />
    <path
       style="fill:none;stroke:#000000;stroke-width:2;stroke-linecap:butt;stroke-linejoin:miter;stroke-miterlimit:4;stroke-dasharray:none;stroke-opacity:1;marker-start:url(#Arrow2Mstart);marker-end:url(#marker1704)"
       d="m -832.67868,282.91803 -48.15885,0.11658 -0.55932,-36.25958"
       id="path1684"
       inkscape:connector-curvature="0"
       sodipodi:nodetypes="ccc" />
    <g
       id="g1810"
       transform="matrix(0.47643044,0,0,0.47643044,-985.30004,149.93907)">
      <g
         word-spacing="normal"
         letter-spacing="normal"
         font-size-adjust="none"
         font-stretch="normal"
         font-weight="normal"
         font-variant="normal"
         font-style="normal"
         stroke-miterlimit="10.433"
         xml:space="preserve"
         transform="matrix(0.59011213,0,0,-0.59011213,-103.26962,480.49841)"
         id="g1808"
         style="font-style:normal;font-variant:normal;font-weight:normal;font-stretch:normal;letter-spacing:normal;word-spacing:normal;text-anchor:start;fill:none;fill-opacity:1;fill-rule:evenodd;stroke:#000000;stroke-linecap:butt;stroke-linejoin:miter;stroke-miterlimit:10.43299961;stroke-dasharray:none;stroke-dashoffset:0;stroke-opacity:1"><path
           id="path1802"
           d="m 489.95,448.44 -0.07,-0.06 -0.07,-0.07 -0.08,-0.07 -0.08,-0.07 -0.08,-0.08 -0.09,-0.08 -0.09,-0.09 -0.1,-0.08 -0.09,-0.09 -0.1,-0.09 -0.19,-0.19 -0.2,-0.2 -0.19,-0.2 -0.09,-0.11 -0.09,-0.1 -0.09,-0.1 -0.08,-0.1 -0.08,-0.11 -0.08,-0.1 -0.07,-0.1 -0.07,-0.1 -0.05,-0.1 -0.06,-0.1 -0.04,-0.1 -0.04,-0.09 -0.03,-0.09 -0.03,-0.09 -0.01,-0.09 v -0.09 c 0,-0.5 0.5,-1 1,-1 0.45,0 0.7,0.36 0.95,0.66 0.59,0.75 1.73,2.14 3.94,3.23 0.34,0.21 0.84,0.46 0.84,1.05 0,0.5 -0.34,0.75 -0.7,1 -1.1,0.75 -1.64,1.64 -2.05,2.83 -0.09,0.45 -0.3,1.11 -0.98,1.11 -0.71,0 -1,-0.66 -1,-1.05 0,-0.25 0.39,-1.84 1.18,-2.89 h -16.78 c -0.84,0 -1.75,0 -1.75,-1 0,-1 0.91,-1 1.75,-1 z"
           inkscape:connector-curvature="0"
           style="fill:#000000;stroke-width:0" /><path
           id="path1804"
           d="m 490.8,417.81 0.01,0.02 0.01,0.03 0.02,0.05 0.02,0.05 0.02,0.05 0.02,0.05 0.02,0.05 0.02,0.05 0.01,0.05 0.01,0.03 0.01,0.02 0.01,0.02 0.01,0.03 v 0.02 l 0.01,0.02 0.01,0.02 v 0.02 l 0.01,0.02 v 0.02 l 0.01,0.01 v 0.02 0.02 0.01 0.01 l 0.01,0.01 c 0,0.05 0,0.55 -0.6,0.55 -0.45,0 -0.55,-0.3 -0.64,-0.61 -3.25,-7.38 -5.08,-10.7 -13.61,-10.7 h -7.26 c -0.71,0 -0.8,0 -1.1,0.04 -0.5,0.05 -0.65,0.1 -0.65,0.5 0,0.14 0,0.25 0.25,1.14 l 3.39,13.61 h 4.93 c 4.24,0 4.24,-1.04 4.24,-2.29 0,-0.35 0,-0.96 -0.36,-2.44 -0.09,-0.25 -0.14,-0.41 -0.14,-0.55 0,-0.25 0.19,-0.55 0.64,-0.55 0.41,0 0.55,0.25 0.75,0.99 l 2.84,11.67 c 0,0.3 -0.25,0.55 -0.61,0.55 -0.43,0 -0.54,-0.3 -0.68,-0.91 -1.05,-3.78 -1.96,-4.92 -6.54,-4.92 h -4.68 l 3,12 c 0.43,1.75 0.5,1.94 2.68,1.94 h 7.02 c 6.08,0 7.58,-1.44 7.58,-5.53 0,-1.19 0,-1.29 -0.2,-2.64 0,-0.3 -0.05,-0.65 -0.05,-0.9 0,-0.25 0.15,-0.59 0.59,-0.59 0.56,0 0.61,0.3 0.71,1.25 l 1,8.61 c 0.14,1.34 -0.1,1.34 -1.35,1.34 h -25.15 c -1,0 -1.5,0 -1.5,-1 0,-0.54 0.45,-0.54 1.39,-0.54 1.84,0 3.23,0 3.23,-0.89 0,-0.21 0,-0.3 -0.25,-1.21 l -6.56,-26.34 c -0.5,-1.95 -0.61,-2.34 -4.55,-2.34 -0.84,0 -1.39,0 -1.39,-0.96 0,-0.59 0.45,-0.59 1.39,-0.59 h 25.86 c 1.16,0 1.2,0.05 1.55,0.84 z"
           inkscape:connector-curvature="0"
           style="fill:#000000;stroke-width:0" /><path
           id="path1806"
           d="m 508.64,421.59 v 0.05 0.05 0.05 0.06 0.05 0.06 0.05 l -0.01,0.06 v 0.06 l -0.01,0.05 -0.01,0.06 -0.01,0.06 -0.01,0.05 -0.01,0.06 -0.02,0.05 -0.02,0.05 -0.02,0.05 -0.02,0.05 -0.03,0.05 -0.03,0.04 -0.03,0.05 -0.03,0.04 -0.04,0.03 -0.02,0.02 -0.02,0.02 -0.03,0.02 -0.02,0.01 -0.02,0.01 -0.03,0.02 -0.03,0.01 -0.02,0.01 -0.03,0.01 -0.03,0.01 -0.03,0.01 -0.03,0.01 H 508 l -0.04,0.01 h -0.03 l -0.04,0.01 h -0.04 -0.03 c -0.88,0 -0.88,-0.81 -0.88,-1.36 v -21.13 h -10.62 c -0.53,0 -1.39,0 -1.39,-0.82 0,-0.88 0.79,-0.88 1.39,-0.88 h 22.96 c 0.55,0 1.4,0 1.4,0.85 0,0.85 -0.82,0.85 -1.4,0.85 h -10.64 z"
           inkscape:connector-curvature="0"
           style="fill:#000000;stroke-width:0" /></g>    </g>
    <g
       id="g1930"
       transform="matrix(0.47343065,0,0,0.47343065,-940.87557,186.14872)">
      <g
         word-spacing="normal"
         letter-spacing="normal"
         font-size-adjust="none"
         font-stretch="normal"
         font-weight="normal"
         font-variant="normal"
         font-style="normal"
         stroke-miterlimit="10.433"
         xml:space="preserve"
         transform="matrix(0.59011213,0,0,-0.59011213,-103.26962,480.49841)"
         id="g1928"
         style="font-style:normal;font-variant:normal;font-weight:normal;font-stretch:normal;letter-spacing:normal;word-spacing:normal;text-anchor:start;fill:none;fill-opacity:1;fill-rule:evenodd;stroke:#000000;stroke-linecap:butt;stroke-linejoin:miter;stroke-miterlimit:10.43299961;stroke-dasharray:none;stroke-dashoffset:0;stroke-opacity:1"><path
           id="path1920"
           d="m 489.95,448.44 -0.07,-0.06 -0.07,-0.07 -0.08,-0.07 -0.08,-0.07 -0.08,-0.08 -0.09,-0.08 -0.09,-0.09 -0.1,-0.08 -0.09,-0.09 -0.1,-0.09 -0.19,-0.19 -0.2,-0.2 -0.19,-0.2 -0.09,-0.11 -0.09,-0.1 -0.09,-0.1 -0.08,-0.1 -0.08,-0.11 -0.08,-0.1 -0.07,-0.1 -0.07,-0.1 -0.05,-0.1 -0.06,-0.1 -0.04,-0.1 -0.04,-0.09 -0.03,-0.09 -0.03,-0.09 -0.01,-0.09 v -0.09 c 0,-0.5 0.5,-1 1,-1 0.45,0 0.7,0.36 0.95,0.66 0.59,0.75 1.73,2.14 3.94,3.23 0.34,0.21 0.84,0.46 0.84,1.05 0,0.5 -0.34,0.75 -0.7,1 -1.1,0.75 -1.64,1.64 -2.05,2.83 -0.09,0.45 -0.3,1.11 -0.98,1.11 -0.71,0 -1,-0.66 -1,-1.05 0,-0.25 0.39,-1.84 1.18,-2.89 h -16.78 c -0.84,0 -1.75,0 -1.75,-1 0,-1 0.91,-1 1.75,-1 z"
           inkscape:connector-curvature="0"
           style="fill:#000000;stroke-width:0" /><path
           id="path1922"
           d="m 490.8,417.81 0.01,0.02 0.01,0.03 0.02,0.05 0.02,0.05 0.02,0.05 0.02,0.05 0.02,0.05 0.02,0.05 0.01,0.05 0.01,0.03 0.01,0.02 0.01,0.02 0.01,0.03 v 0.02 l 0.01,0.02 0.01,0.02 v 0.02 l 0.01,0.02 v 0.02 l 0.01,0.01 v 0.02 0.02 0.01 0.01 l 0.01,0.01 c 0,0.05 0,0.55 -0.6,0.55 -0.45,0 -0.55,-0.3 -0.64,-0.61 -3.25,-7.38 -5.08,-10.7 -13.61,-10.7 h -7.26 c -0.71,0 -0.8,0 -1.1,0.04 -0.5,0.05 -0.65,0.1 -0.65,0.5 0,0.14 0,0.25 0.25,1.14 l 3.39,13.61 h 4.93 c 4.24,0 4.24,-1.04 4.24,-2.29 0,-0.35 0,-0.96 -0.36,-2.44 -0.09,-0.25 -0.14,-0.41 -0.14,-0.55 0,-0.25 0.19,-0.55 0.64,-0.55 0.41,0 0.55,0.25 0.75,0.99 l 2.84,11.67 c 0,0.3 -0.25,0.55 -0.61,0.55 -0.43,0 -0.54,-0.3 -0.68,-0.91 -1.05,-3.78 -1.96,-4.92 -6.54,-4.92 h -4.68 l 3,12 c 0.43,1.75 0.5,1.94 2.68,1.94 h 7.02 c 6.08,0 7.58,-1.44 7.58,-5.53 0,-1.19 0,-1.29 -0.2,-2.64 0,-0.3 -0.05,-0.65 -0.05,-0.9 0,-0.25 0.15,-0.59 0.59,-0.59 0.56,0 0.61,0.3 0.71,1.25 l 1,8.61 c 0.14,1.34 -0.1,1.34 -1.35,1.34 h -25.15 c -1,0 -1.5,0 -1.5,-1 0,-0.54 0.45,-0.54 1.39,-0.54 1.84,0 3.23,0 3.23,-0.89 0,-0.21 0,-0.3 -0.25,-1.21 l -6.56,-26.34 c -0.5,-1.95 -0.61,-2.34 -4.55,-2.34 -0.84,0 -1.39,0 -1.39,-0.96 0,-0.59 0.45,-0.59 1.39,-0.59 h 25.86 c 1.16,0 1.2,0.05 1.55,0.84 z"
           inkscape:connector-curvature="0"
           style="fill:#000000;stroke-width:0" /><path
           id="path1924"
           d="m 499.41,422.01 v 0.05 0.05 0.05 0.06 l -0.01,0.11 v 0.05 0.06 l -0.01,0.05 -0.01,0.06 v 0.05 l -0.01,0.06 -0.02,0.05 -0.01,0.06 -0.02,0.05 -0.01,0.05 -0.02,0.05 -0.03,0.05 -0.02,0.04 -0.03,0.05 -0.03,0.04 -0.04,0.04 -0.04,0.03 -0.02,0.02 -0.02,0.01 -0.02,0.02 -0.02,0.01 -0.03,0.02 -0.02,0.01 -0.03,0.01 -0.03,0.01 -0.03,0.01 -0.02,0.01 -0.03,0.01 -0.04,0.01 -0.03,0.01 h -0.03 -0.04 l -0.03,0.01 h -0.04 -0.04 c -0.87,0 -0.87,-0.88 -0.87,-1.5 v -31.81 c 0,-0.64 0,-1.5 0.87,-1.5 0.83,0 0.83,0.79 0.83,1.31 z"
           inkscape:connector-curvature="0"
           style="fill:#000000;stroke-width:0" /><path
           id="path1926"
           d="m 507.11,421.84 v 0.06 0.06 0.12 0.13 l -0.01,0.13 -0.01,0.06 v 0.06 l -0.01,0.07 -0.01,0.06 -0.02,0.06 -0.01,0.06 -0.02,0.06 -0.02,0.05 -0.02,0.06 -0.02,0.05 -0.03,0.05 -0.03,0.05 -0.03,0.05 -0.04,0.04 -0.04,0.04 -0.05,0.03 -0.02,0.02 -0.02,0.02 -0.03,0.01 -0.03,0.02 -0.02,0.01 -0.03,0.01 -0.03,0.01 -0.03,0.01 -0.04,0.01 -0.03,0.01 h -0.03 l -0.04,0.01 h -0.03 l -0.04,0.01 h -0.04 -0.04 c -0.83,0 -0.83,-0.81 -0.83,-1.33 v -32.17 c 0,-0.52 0,-1.31 0.83,-1.31 0.87,0 0.87,0.86 0.87,1.5 z"
           inkscape:connector-curvature="0"
           style="fill:#000000;stroke-width:0" /></g>    </g>
    <path
       sodipodi:type="star"
       style="fill:#000000;fill-opacity:1;stroke:none;stroke-width:1.5;stroke-miterlimit:4;stroke-dasharray:none;stroke-opacity:0.54901961"
       id="path1425-1-8-7-9-2-0-2-3-7"
       sodipodi:sides="3"
       sodipodi:cx="-837.83362"
       sodipodi:cy="68.362808"
       sodipodi:r1="7.6780467"
       sodipodi:r2="3.8390234"
       sodipodi:arg1="0.26179939"
       sodipodi:arg2="1.3089969"
       inkscape:flatsided="false"
       inkscape:rounded="0"
       inkscape:randomized="0"
       d="m -830.41719,70.350033 -6.42282,1.720987 -6.42281,1.720987 1.72099,-6.422811 1.72099,-6.422811 4.70182,4.701824 z"
       inkscape:transform-center-x="-32.667731"
       inkscape:transform-center-y="-58.989203"
       transform="matrix(1.3954564,-0.30028434,0.28585715,1.3284116,179.25939,0.94558917)" />
  </g>
</svg>
